<?xml version="1.0" encoding="UTF-8" standalone="no"?>
<!DOCTYPE svg PUBLIC "-//W3C//DTD SVG 1.1//EN"
 "http://www.w3.org/Graphics/SVG/1.1/DTD/svg11.dtd">
<!-- Generated by graphviz version 2.36.0 (20140111.2315)
 -->
<!-- Title: G Pages: 1 -->
<svg width="368pt" height="205pt"
 viewBox="0.00 0.00 368.00 205.00" xmlns="http://www.w3.org/2000/svg" xmlns:xlink="http://www.w3.org/1999/xlink">
<g id="graph0" class="graph" transform="scale(1 1) rotate(0) translate(4 201)">
<title>G</title>
<polygon fill="white" stroke="none" points="-4,4 -4,-201 364,-201 364,4 -4,4"/>
<g id="clust2" class="cluster"><title>cluster_0</title>
<polygon fill="none" stroke="white" points="82,-29 82,-167 134,-167 134,-29 82,-29"/>
</g>
<g id="clust3" class="cluster"><title>cluster_1</title>
<polygon fill="none" stroke="white" points="154,-8 154,-189 206,-189 206,-8 154,-8"/>
</g>
<g id="clust4" class="cluster"><title>cluster_3</title>
<polygon fill="none" stroke="white" points="226,-29 226,-167 278,-167 278,-29 226,-29"/>
</g>
<!-- I1_EMPTY -->
<g id="node1" class="node"><title>I1_EMPTY</title>
</g>
<!-- x1 -->
<g id="node4" class="node"><title>x1</title>
<ellipse fill="none" stroke="black" cx="108" cy="-141" rx="18" ry="18"/>
</g>
<!-- I1_EMPTY&#45;&gt;x1 -->
<g id="edge1" class="edge"><title>I1_EMPTY&#45;&gt;x1</title>
<path fill="none" stroke="black" d="M54.3059,-141C62.4202,-141 71.3739,-141 79.5625,-141"/>
<polygon fill="black" stroke="black" points="79.7516,-144.5 89.7516,-141 79.7516,-137.5 79.7516,-144.5"/>
</g>
<!-- I2_EMPTY -->
<g id="node2" class="node"><title>I2_EMPTY</title>
</g>
<!-- x2 -->
<g id="node5" class="node"><title>x2</title>
<ellipse fill="none" stroke="black" cx="108" cy="-98" rx="18" ry="18"/>
</g>
<!-- I2_EMPTY&#45;&gt;x2 -->
<g id="edge2" class="edge"><title>I2_EMPTY&#45;&gt;x2</title>
<path fill="none" stroke="black" d="M54.3059,-98C62.4202,-98 71.3739,-98 79.5625,-98"/>
<polygon fill="black" stroke="black" points="79.7516,-101.5 89.7516,-98 79.7516,-94.5001 79.7516,-101.5"/>
</g>
<!-- I3_EMPTY -->
<g id="node3" class="node"><title>I3_EMPTY</title>
</g>
<!-- x3 -->
<g id="node6" class="node"><title>x3</title>
<ellipse fill="none" stroke="black" cx="108" cy="-55" rx="18" ry="18"/>
</g>
<!-- I3_EMPTY&#45;&gt;x3 -->
<g id="edge3" class="edge"><title>I3_EMPTY&#45;&gt;x3</title>
<path fill="none" stroke="black" d="M54.3059,-55C62.4202,-55 71.3739,-55 79.5625,-55"/>
<polygon fill="black" stroke="black" points="79.7516,-58.5001 89.7516,-55 79.7516,-51.5001 79.7516,-58.5001"/>
</g>
<!-- a12 -->
<g id="node7" class="node"><title>a12</title>
<ellipse fill="none" stroke="black" cx="180" cy="-163" rx="18" ry="18"/>
</g>
<!-- x1&#45;&gt;a12 -->
<g id="edge4" class="edge"><title>x1&#45;&gt;a12</title>
<path fill="none" stroke="black" d="M125.589,-146.214C133.696,-148.762 143.646,-151.889 152.752,-154.751"/>
<polygon fill="black" stroke="black" points="151.941,-158.164 162.53,-157.824 154.04,-151.486 151.941,-158.164"/>
</g>
<!-- a22 -->
<g id="node8" class="node"><title>a22</title>
<ellipse fill="none" stroke="black" cx="180" cy="-120" rx="18" ry="18"/>
</g>
<!-- x1&#45;&gt;a22 -->
<g id="edge5" class="edge"><title>x1&#45;&gt;a22</title>
<path fill="none" stroke="black" d="M125.589,-136.023C133.696,-133.591 143.646,-130.606 152.752,-127.874"/>
<polygon fill="black" stroke="black" points="153.958,-131.167 162.53,-124.941 151.946,-124.462 153.958,-131.167"/>
</g>
<!-- a32 -->
<g id="node9" class="node"><title>a32</title>
<ellipse fill="none" stroke="black" cx="180" cy="-77" rx="18" ry="18"/>
</g>
<!-- x1&#45;&gt;a32 -->
<g id="edge6" class="edge"><title>x1&#45;&gt;a32</title>
<path fill="none" stroke="black" d="M121.839,-129.261C132.101,-119.879 146.681,-106.549 158.547,-95.6996"/>
<polygon fill="black" stroke="black" points="161.224,-97.995 166.242,-88.6642 156.5,-92.8288 161.224,-97.995"/>
</g>
<!-- a42 -->
<g id="node10" class="node"><title>a42</title>
<ellipse fill="none" stroke="black" cx="180" cy="-34" rx="18" ry="18"/>
</g>
<!-- x1&#45;&gt;a42 -->
<g id="edge7" class="edge"><title>x1&#45;&gt;a42</title>
<path fill="none" stroke="black" d="M118.733,-126.122C130.383,-108.315 150.03,-78.2834 163.712,-57.3685"/>
<polygon fill="black" stroke="black" points="166.804,-59.036 169.349,-48.7515 160.946,-55.2037 166.804,-59.036"/>
</g>
<!-- x2&#45;&gt;a12 -->
<g id="edge8" class="edge"><title>x2&#45;&gt;a12</title>
<path fill="none" stroke="black" d="M121.839,-109.922C132.2,-119.543 146.962,-133.25 158.889,-144.325"/>
<polygon fill="black" stroke="black" points="156.533,-146.914 166.242,-151.154 161.296,-141.784 156.533,-146.914"/>
</g>
<!-- x2&#45;&gt;a22 -->
<g id="edge9" class="edge"><title>x2&#45;&gt;a22</title>
<path fill="none" stroke="black" d="M125.589,-103.214C133.696,-105.762 143.646,-108.889 152.752,-111.751"/>
<polygon fill="black" stroke="black" points="151.941,-115.164 162.53,-114.824 154.04,-108.486 151.941,-115.164"/>
</g>
<!-- x2&#45;&gt;a32 -->
<g id="edge10" class="edge"><title>x2&#45;&gt;a32</title>
<path fill="none" stroke="black" d="M125.589,-93.0233C133.696,-90.5911 143.646,-87.6061 152.752,-84.8745"/>
<polygon fill="black" stroke="black" points="153.958,-88.1669 162.53,-81.941 151.946,-81.4621 153.958,-88.1669"/>
</g>
<!-- x2&#45;&gt;a42 -->
<g id="edge11" class="edge"><title>x2&#45;&gt;a42</title>
<path fill="none" stroke="black" d="M121.839,-86.2614C132.101,-76.8789 146.681,-63.5487 158.547,-52.6996"/>
<polygon fill="black" stroke="black" points="161.224,-54.995 166.242,-45.6642 156.5,-49.8288 161.224,-54.995"/>
</g>
<!-- x3&#45;&gt;a12 -->
<g id="edge12" class="edge"><title>x3&#45;&gt;a12</title>
<path fill="none" stroke="black" d="M118.733,-70.0169C130.435,-88.0714 150.206,-118.575 163.896,-139.696"/>
<polygon fill="black" stroke="black" points="160.973,-141.623 169.349,-148.111 166.848,-137.815 160.973,-141.623"/>
</g>
<!-- x3&#45;&gt;a22 -->
<g id="edge13" class="edge"><title>x3&#45;&gt;a22</title>
<path fill="none" stroke="black" d="M121.839,-66.922C132.2,-76.5427 146.962,-90.2503 158.889,-101.325"/>
<polygon fill="black" stroke="black" points="156.533,-103.914 166.242,-108.154 161.296,-98.7842 156.533,-103.914"/>
</g>
<!-- x3&#45;&gt;a32 -->
<g id="edge14" class="edge"><title>x3&#45;&gt;a32</title>
<path fill="none" stroke="black" d="M125.589,-60.2137C133.696,-62.7617 143.646,-65.8888 152.752,-68.7506"/>
<polygon fill="black" stroke="black" points="151.941,-72.1644 162.53,-71.8237 154.04,-65.4864 151.941,-72.1644"/>
</g>
<!-- x3&#45;&gt;a42 -->
<g id="edge15" class="edge"><title>x3&#45;&gt;a42</title>
<path fill="none" stroke="black" d="M125.589,-50.0233C133.696,-47.5911 143.646,-44.6061 152.752,-41.8745"/>
<polygon fill="black" stroke="black" points="153.958,-45.1669 162.53,-38.941 151.946,-38.4621 153.958,-45.1669"/>
</g>
<!-- O1 -->
<g id="node11" class="node"><title>O1</title>
<ellipse fill="none" stroke="black" cx="252" cy="-98" rx="18" ry="18"/>
</g>
<!-- a12&#45;&gt;O1 -->
<g id="edge16" class="edge"><title>a12&#45;&gt;O1</title>
<path fill="none" stroke="black" d="M193.839,-151.078C204.2,-141.457 218.962,-127.75 230.889,-116.675"/>
<polygon fill="black" stroke="black" points="233.296,-119.216 238.242,-109.846 228.533,-114.086 233.296,-119.216"/>
</g>
<!-- O2 -->
<g id="node12" class="node"><title>O2</title>
<ellipse fill="none" stroke="black" cx="252" cy="-55" rx="18" ry="18"/>
</g>
<!-- a12&#45;&gt;O2 -->
<g id="edge17" class="edge"><title>a12&#45;&gt;O2</title>
<path fill="none" stroke="black" d="M190.733,-147.983C202.435,-129.929 222.206,-99.4252 235.896,-78.3035"/>
<polygon fill="black" stroke="black" points="238.848,-80.1846 241.349,-69.8894 232.973,-76.3773 238.848,-80.1846"/>
</g>
<!-- O3 -->
<g id="node13" class="node"><title>O3</title>
<ellipse fill="none" stroke="black" cx="252" cy="-141" rx="18" ry="18"/>
</g>
<!-- a12&#45;&gt;O3 -->
<g id="edge18" class="edge"><title>a12&#45;&gt;O3</title>
<path fill="none" stroke="black" d="M197.589,-157.786C205.696,-155.238 215.646,-152.111 224.752,-149.249"/>
<polygon fill="black" stroke="black" points="226.04,-152.514 234.53,-146.176 223.941,-145.836 226.04,-152.514"/>
</g>
<!-- a22&#45;&gt;O1 -->
<g id="edge19" class="edge"><title>a22&#45;&gt;O1</title>
<path fill="none" stroke="black" d="M197.589,-114.786C205.696,-112.238 215.646,-109.111 224.752,-106.249"/>
<polygon fill="black" stroke="black" points="226.04,-109.514 234.53,-103.176 223.941,-102.836 226.04,-109.514"/>
</g>
<!-- a22&#45;&gt;O2 -->
<g id="edge20" class="edge"><title>a22&#45;&gt;O2</title>
<path fill="none" stroke="black" d="M193.839,-108.078C204.2,-98.4573 218.962,-84.7497 230.889,-73.6747"/>
<polygon fill="black" stroke="black" points="233.296,-76.2158 238.242,-66.8464 228.533,-71.0862 233.296,-76.2158"/>
</g>
<!-- a22&#45;&gt;O3 -->
<g id="edge21" class="edge"><title>a22&#45;&gt;O3</title>
<path fill="none" stroke="black" d="M197.589,-124.977C205.696,-127.409 215.646,-130.394 224.752,-133.126"/>
<polygon fill="black" stroke="black" points="223.946,-136.538 234.53,-136.059 225.958,-129.833 223.946,-136.538"/>
</g>
<!-- a32&#45;&gt;O1 -->
<g id="edge22" class="edge"><title>a32&#45;&gt;O1</title>
<path fill="none" stroke="black" d="M197.589,-81.9767C205.696,-84.4089 215.646,-87.3939 224.752,-90.1255"/>
<polygon fill="black" stroke="black" points="223.946,-93.5379 234.53,-93.059 225.958,-86.8331 223.946,-93.5379"/>
</g>
<!-- a32&#45;&gt;O2 -->
<g id="edge23" class="edge"><title>a32&#45;&gt;O2</title>
<path fill="none" stroke="black" d="M197.589,-71.7863C205.696,-69.2383 215.646,-66.1112 224.752,-63.2494"/>
<polygon fill="black" stroke="black" points="226.04,-66.5136 234.53,-60.1763 223.941,-59.8356 226.04,-66.5136"/>
</g>
<!-- a32&#45;&gt;O3 -->
<g id="edge24" class="edge"><title>a32&#45;&gt;O3</title>
<path fill="none" stroke="black" d="M193.839,-88.7386C204.101,-98.1211 218.681,-111.451 230.547,-122.3"/>
<polygon fill="black" stroke="black" points="228.5,-125.171 238.242,-129.336 233.224,-120.005 228.5,-125.171"/>
</g>
<!-- a42&#45;&gt;O1 -->
<g id="edge25" class="edge"><title>a42&#45;&gt;O1</title>
<path fill="none" stroke="black" d="M193.839,-45.7386C204.101,-55.1211 218.681,-68.4513 230.547,-79.3004"/>
<polygon fill="black" stroke="black" points="228.5,-82.1712 238.242,-86.3358 233.224,-77.005 228.5,-82.1712"/>
</g>
<!-- a42&#45;&gt;O2 -->
<g id="edge26" class="edge"><title>a42&#45;&gt;O2</title>
<path fill="none" stroke="black" d="M197.589,-38.9767C205.696,-41.4089 215.646,-44.3939 224.752,-47.1255"/>
<polygon fill="black" stroke="black" points="223.946,-50.5379 234.53,-50.059 225.958,-43.8331 223.946,-50.5379"/>
</g>
<!-- a42&#45;&gt;O3 -->
<g id="edge27" class="edge"><title>a42&#45;&gt;O3</title>
<path fill="none" stroke="black" d="M190.733,-48.8779C202.383,-66.6854 222.03,-96.7166 235.712,-117.631"/>
<polygon fill="black" stroke="black" points="232.946,-119.796 241.349,-126.248 238.804,-115.964 232.946,-119.796"/>
</g>
<!-- O1_EMPTY -->
<g id="node14" class="node"><title>O1_EMPTY</title>
</g>
<!-- O1&#45;&gt;O1_EMPTY -->
<g id="edge28" class="edge"><title>O1&#45;&gt;O1_EMPTY</title>
<path fill="none" stroke="black" d="M270.142,-98C277.644,-98 286.75,-98 295.642,-98"/>
<polygon fill="black" stroke="black" points="295.874,-101.5 305.874,-98 295.874,-94.5001 295.874,-101.5"/>
</g>
<!-- O2_EMPTY -->
<g id="node15" class="node"><title>O2_EMPTY</title>
</g>
<!-- O2&#45;&gt;O2_EMPTY -->
<g id="edge29" class="edge"><title>O2&#45;&gt;O2_EMPTY</title>
<path fill="none" stroke="black" d="M270.142,-55C277.644,-55 286.75,-55 295.642,-55"/>
<polygon fill="black" stroke="black" points="295.874,-58.5001 305.874,-55 295.874,-51.5001 295.874,-58.5001"/>
</g>
<!-- O3_EMPTY -->
<g id="node16" class="node"><title>O3_EMPTY</title>
</g>
<!-- O3&#45;&gt;O3_EMPTY -->
<g id="edge30" class="edge"><title>O3&#45;&gt;O3_EMPTY</title>
<path fill="none" stroke="black" d="M270.142,-141C277.644,-141 286.75,-141 295.642,-141"/>
<polygon fill="black" stroke="black" points="295.874,-144.5 305.874,-141 295.874,-137.5 295.874,-144.5"/>
</g>
</g>
</svg>
