<?xml version="1.0" encoding="UTF-8" standalone="no"?>
<!DOCTYPE svg PUBLIC "-//W3C//DTD SVG 1.1//EN"
 "http://www.w3.org/Graphics/SVG/1.1/DTD/svg11.dtd">
<!-- Generated by graphviz version 2.36.0 (20140111.2315)
 -->
<!-- Title: G Pages: 1 -->
<svg width="452pt" height="246pt"
 viewBox="0.00 0.00 452.00 246.00" xmlns="http://www.w3.org/2000/svg" xmlns:xlink="http://www.w3.org/1999/xlink">
<g id="graph0" class="graph" transform="scale(1 1) rotate(0) translate(4 242)">
<title>G</title>
<polygon fill="white" stroke="none" points="-4,4 -4,-242 448,-242 448,4 -4,4"/>
<g id="clust3" class="cluster"><title>cluster_0</title>
<polygon fill="none" stroke="white" points="98,-8 98,-230 168,-230 168,-8 98,-8"/>
<text text-anchor="middle" x="133" y="-214.8" font-family="Times,serif" font-size="14.00">15 Inputs</text>
</g>
<g id="clust5" class="cluster"><title>cluster_1</title>
<polygon fill="none" stroke="white" points="188,-8 188,-230 282,-230 282,-8 188,-8"/>
<text text-anchor="middle" x="235" y="-214.8" font-family="Times,serif" font-size="14.00">Hidden Layer</text>
</g>
<!-- I1_EMPTY -->
<g id="node1" class="node"><title>I1_EMPTY</title>
<text text-anchor="middle" x="35" y="-177.3" font-family="Times,serif" font-size="14.00">Feature0</text>
</g>
<!-- x1 -->
<g id="node4" class="node"><title>x1</title>
<ellipse fill="none" stroke="black" cx="133" cy="-181" rx="18" ry="18"/>
</g>
<!-- I1_EMPTY&#45;&gt;x1 -->
<g id="edge1" class="edge"><title>I1_EMPTY&#45;&gt;x1</title>
<path fill="none" stroke="black" d="M67.7,-181C79.6197,-181 93.061,-181 104.561,-181"/>
<polygon fill="black" stroke="black" points="104.879,-184.5 114.879,-181 104.879,-177.5 104.879,-184.5"/>
</g>
<!-- I2_EMPTY -->
<g id="node2" class="node"><title>I2_EMPTY</title>
<text text-anchor="middle" x="35" y="-134.3" font-family="Times,serif" font-size="14.00">Feature1</text>
</g>
<!-- x2 -->
<g id="node5" class="node"><title>x2</title>
<ellipse fill="none" stroke="black" cx="133" cy="-138" rx="18" ry="18"/>
</g>
<!-- I2_EMPTY&#45;&gt;x2 -->
<g id="edge2" class="edge"><title>I2_EMPTY&#45;&gt;x2</title>
<path fill="none" stroke="black" d="M67.7,-138C79.6197,-138 93.061,-138 104.561,-138"/>
<polygon fill="black" stroke="black" points="104.879,-141.5 114.879,-138 104.879,-134.5 104.879,-141.5"/>
</g>
<!-- IN_EMPTY -->
<g id="node3" class="node"><title>IN_EMPTY</title>
<text text-anchor="middle" x="35" y="-30.3" font-family="Times,serif" font-size="14.00">FeatureN</text>
</g>
<!-- x3 -->
<g id="node7" class="node"><title>x3</title>
<ellipse fill="none" stroke="black" cx="133" cy="-34" rx="18" ry="18"/>
</g>
<!-- IN_EMPTY&#45;&gt;x3 -->
<g id="edge3" class="edge"><title>IN_EMPTY&#45;&gt;x3</title>
<path fill="none" stroke="black" d="M69.5761,-34C81.0119,-34 93.6517,-34 104.549,-34"/>
<polygon fill="black" stroke="black" points="104.757,-37.5001 114.757,-34 104.757,-30.5001 104.757,-37.5001"/>
</g>
<!-- a12 -->
<g id="node8" class="node"><title>a12</title>
<ellipse fill="none" stroke="black" cx="235" cy="-181" rx="18" ry="18"/>
</g>
<!-- x1&#45;&gt;a12 -->
<g id="edge4" class="edge"><title>x1&#45;&gt;a12</title>
<path fill="none" stroke="black" d="M151.419,-181C166.618,-181 188.933,-181 206.536,-181"/>
<polygon fill="black" stroke="black" points="206.781,-184.5 216.781,-181 206.781,-177.5 206.781,-184.5"/>
</g>
<!-- a22 -->
<g id="node9" class="node"><title>a22</title>
<ellipse fill="none" stroke="black" cx="235" cy="-138" rx="18" ry="18"/>
</g>
<!-- x1&#45;&gt;a22 -->
<g id="edge5" class="edge"><title>x1&#45;&gt;a22</title>
<path fill="none" stroke="black" d="M150.067,-174.091C165.979,-167.249 190.571,-156.674 209.031,-148.737"/>
<polygon fill="black" stroke="black" points="210.499,-151.915 218.303,-144.75 207.734,-145.485 210.499,-151.915"/>
</g>
<!-- adot -->
<g id="node10" class="node"><title>adot</title>
<text text-anchor="middle" x="235" y="-97.3" font-family="Times,serif" font-size="14.00">.</text>
<text text-anchor="middle" x="235" y="-82.3" font-family="Times,serif" font-size="14.00">.</text>
<text text-anchor="middle" x="235" y="-67.3" font-family="Times,serif" font-size="14.00">.</text>
</g>
<!-- x1&#45;&gt;adot -->
<g id="edge6" class="edge"><title>x1&#45;&gt;adot</title>
<path fill="none" stroke="black" d="M146.665,-168.968C160.093,-156.212 181.868,-135.526 200.315,-118.001"/>
<polygon fill="black" stroke="black" points="203.144,-120.141 207.983,-110.716 198.322,-115.066 203.144,-120.141"/>
</g>
<!-- a42 -->
<g id="node11" class="node"><title>a42</title>
<ellipse fill="none" stroke="black" cx="235" cy="-34" rx="18" ry="18"/>
</g>
<!-- x1&#45;&gt;a42 -->
<g id="edge7" class="edge"><title>x1&#45;&gt;a42</title>
<path fill="none" stroke="black" d="M143.954,-166.368C161.4,-140.722 197.617,-87.483 218.412,-56.9146"/>
<polygon fill="black" stroke="black" points="221.355,-58.81 224.086,-48.5732 215.568,-54.8728 221.355,-58.81"/>
</g>
<!-- x2&#45;&gt;a12 -->
<g id="edge8" class="edge"><title>x2&#45;&gt;a12</title>
<path fill="none" stroke="black" d="M150.067,-144.909C165.979,-151.751 190.571,-162.326 209.031,-170.263"/>
<polygon fill="black" stroke="black" points="207.734,-173.515 218.303,-174.25 210.499,-167.085 207.734,-173.515"/>
</g>
<!-- x2&#45;&gt;a22 -->
<g id="edge9" class="edge"><title>x2&#45;&gt;a22</title>
<path fill="none" stroke="black" d="M151.419,-138C166.618,-138 188.933,-138 206.536,-138"/>
<polygon fill="black" stroke="black" points="206.781,-141.5 216.781,-138 206.781,-134.5 206.781,-141.5"/>
</g>
<!-- x2&#45;&gt;adot -->
<g id="edge10" class="edge"><title>x2&#45;&gt;adot</title>
<path fill="none" stroke="black" d="M149.188,-130.102C162.28,-123.294 181.695,-113.198 198.647,-104.384"/>
<polygon fill="black" stroke="black" points="200.497,-107.366 207.755,-99.6475 197.268,-101.156 200.497,-107.366"/>
</g>
<!-- x2&#45;&gt;a42 -->
<g id="edge11" class="edge"><title>x2&#45;&gt;a42</title>
<path fill="none" stroke="black" d="M146.262,-125.248C163.373,-107.452 194.581,-74.9954 214.794,-53.9742"/>
<polygon fill="black" stroke="black" points="217.542,-56.1661 221.95,-46.5319 212.496,-51.3144 217.542,-56.1661"/>
</g>
<!-- xdot -->
<g id="node6" class="node"><title>xdot</title>
<text text-anchor="middle" x="133" y="-97.3" font-family="Times,serif" font-size="14.00">.</text>
<text text-anchor="middle" x="133" y="-82.3" font-family="Times,serif" font-size="14.00">.</text>
<text text-anchor="middle" x="133" y="-67.3" font-family="Times,serif" font-size="14.00">.</text>
</g>
<!-- x3&#45;&gt;a12 -->
<g id="edge12" class="edge"><title>x3&#45;&gt;a12</title>
<path fill="none" stroke="black" d="M143.954,-48.6323C161.4,-74.2778 197.617,-127.517 218.412,-158.085"/>
<polygon fill="black" stroke="black" points="215.568,-160.127 224.086,-166.427 221.355,-156.19 215.568,-160.127"/>
</g>
<!-- x3&#45;&gt;a22 -->
<g id="edge13" class="edge"><title>x3&#45;&gt;a22</title>
<path fill="none" stroke="black" d="M146.262,-46.7524C163.373,-64.5479 194.581,-97.0046 214.794,-118.026"/>
<polygon fill="black" stroke="black" points="212.496,-120.686 221.95,-125.468 217.542,-115.834 212.496,-120.686"/>
</g>
<!-- x3&#45;&gt;adot -->
<g id="edge14" class="edge"><title>x3&#45;&gt;adot</title>
<path fill="none" stroke="black" d="M149.188,-41.8977C162.28,-48.7059 181.695,-58.8015 198.647,-67.6162"/>
<polygon fill="black" stroke="black" points="197.268,-70.8442 207.755,-72.3525 200.497,-64.6336 197.268,-70.8442"/>
</g>
<!-- x3&#45;&gt;a42 -->
<g id="edge15" class="edge"><title>x3&#45;&gt;a42</title>
<path fill="none" stroke="black" d="M151.419,-34C166.618,-34 188.933,-34 206.536,-34"/>
<polygon fill="black" stroke="black" points="206.781,-37.5001 216.781,-34 206.781,-30.5001 206.781,-37.5001"/>
</g>
<!-- O1 -->
<g id="node12" class="node"><title>O1</title>
<ellipse fill="none" stroke="black" cx="328" cy="-159" rx="18" ry="18"/>
</g>
<!-- a12&#45;&gt;O1 -->
<g id="edge16" class="edge"><title>a12&#45;&gt;O1</title>
<path fill="none" stroke="black" d="M252.691,-176.965C266.032,-173.74 284.985,-169.157 300.411,-165.428"/>
<polygon fill="black" stroke="black" points="301.518,-168.762 310.415,-163.01 299.873,-161.958 301.518,-168.762"/>
</g>
<!-- O2 -->
<g id="node13" class="node"><title>O2</title>
<ellipse fill="none" stroke="black" cx="328" cy="-116" rx="18" ry="18"/>
</g>
<!-- a12&#45;&gt;O2 -->
<g id="edge17" class="edge"><title>a12&#45;&gt;O2</title>
<path fill="none" stroke="black" d="M250.219,-170.844C264.777,-160.445 287.616,-144.131 304.605,-131.996"/>
<polygon fill="black" stroke="black" points="306.778,-134.745 312.881,-126.085 302.709,-129.049 306.778,-134.745"/>
</g>
<!-- a22&#45;&gt;O1 -->
<g id="edge18" class="edge"><title>a22&#45;&gt;O1</title>
<path fill="none" stroke="black" d="M252.691,-141.852C265.948,-144.911 284.749,-149.25 300.122,-152.797"/>
<polygon fill="black" stroke="black" points="299.576,-156.263 310.107,-155.102 301.15,-149.443 299.576,-156.263"/>
</g>
<!-- a22&#45;&gt;O2 -->
<g id="edge19" class="edge"><title>a22&#45;&gt;O2</title>
<path fill="none" stroke="black" d="M252.691,-133.965C266.032,-130.74 284.985,-126.157 300.411,-122.428"/>
<polygon fill="black" stroke="black" points="301.518,-125.762 310.415,-120.01 299.873,-118.958 301.518,-125.762"/>
</g>
<!-- a42&#45;&gt;O1 -->
<g id="edge20" class="edge"><title>a42&#45;&gt;O1</title>
<path fill="none" stroke="black" d="M246.439,-48.3391C262.141,-69.9081 291.979,-110.894 310.604,-136.478"/>
<polygon fill="black" stroke="black" points="307.968,-138.804 316.683,-144.828 313.627,-134.684 307.968,-138.804"/>
</g>
<!-- a42&#45;&gt;O2 -->
<g id="edge21" class="edge"><title>a42&#45;&gt;O2</title>
<path fill="none" stroke="black" d="M249.038,-45.7486C264.04,-59.2665 288.865,-81.6363 306.468,-97.4984"/>
<polygon fill="black" stroke="black" points="304.214,-100.179 313.986,-104.273 308.9,-94.9789 304.214,-100.179"/>
</g>
<!-- O1_EMPTY -->
<g id="node14" class="node"><title>O1_EMPTY</title>
<text text-anchor="middle" x="413" y="-155.3" font-family="Times,serif" font-size="14.00">Output0</text>
</g>
<!-- O1&#45;&gt;O1_EMPTY -->
<g id="edge22" class="edge"><title>O1&#45;&gt;O1_EMPTY</title>
<path fill="none" stroke="black" d="M346.198,-159C353.649,-159 362.715,-159 371.706,-159"/>
<polygon fill="black" stroke="black" points="371.734,-162.5 381.734,-159 371.734,-155.5 371.734,-162.5"/>
</g>
<!-- O2_EMPTY -->
<g id="node15" class="node"><title>O2_EMPTY</title>
<text text-anchor="middle" x="413" y="-112.3" font-family="Times,serif" font-size="14.00">Output1</text>
</g>
<!-- O2&#45;&gt;O2_EMPTY -->
<g id="edge23" class="edge"><title>O2&#45;&gt;O2_EMPTY</title>
<path fill="none" stroke="black" d="M346.198,-116C353.649,-116 362.715,-116 371.706,-116"/>
<polygon fill="black" stroke="black" points="371.734,-119.5 381.734,-116 371.734,-112.5 371.734,-119.5"/>
</g>
</g>
</svg>
