<?xml version="1.0" encoding="UTF-8" standalone="no"?>
<!DOCTYPE svg PUBLIC "-//W3C//DTD SVG 1.1//EN"
 "http://www.w3.org/Graphics/SVG/1.1/DTD/svg11.dtd">
<!-- Generated by graphviz version 2.36.0 (20140111.2315)
 -->
<!-- Title: G Pages: 1 -->
<svg width="301pt" height="259pt"
 viewBox="0.00 0.00 301.00 259.00" xmlns="http://www.w3.org/2000/svg" xmlns:xlink="http://www.w3.org/1999/xlink">
<g id="graph0" class="graph" transform="scale(1 1) rotate(0) translate(4 255)">
<title>G</title>
<polygon fill="white" stroke="none" points="-4,4 -4,-255 297,-255 297,4 -4,4"/>
<g id="clust1" class="cluster"><title>cluster_0</title>
<polygon fill="none" stroke="white" points="7,-48 7,-203 62,-203 62,-48 7,-48"/>
<text text-anchor="middle" x="34.5" y="-187.8" font-family="Times,serif" font-size="14.00">layer 1</text>
</g>
<g id="clust2" class="cluster"><title>cluster_1</title>
<polygon fill="none" stroke="white" points="82,-8 82,-243 137,-243 137,-8 82,-8"/>
<text text-anchor="middle" x="109.5" y="-227.8" font-family="Times,serif" font-size="14.00">layer 2</text>
</g>
<g id="clust3" class="cluster"><title>cluster_2</title>
<polygon fill="none" stroke="white" points="157,-8 157,-243 212,-243 212,-8 157,-8"/>
<text text-anchor="middle" x="184.5" y="-227.8" font-family="Times,serif" font-size="14.00">layer 3</text>
</g>
<g id="clust4" class="cluster"><title>cluster_3</title>
<polygon fill="none" stroke="white" points="232,-28 232,-223 287,-223 287,-28 232,-28"/>
<text text-anchor="middle" x="259.5" y="-207.8" font-family="Times,serif" font-size="14.00">layer 4</text>
</g>
<!-- x1 -->
<g id="node1" class="node"><title>x1</title>
<ellipse fill="none" stroke="#00008b" cx="34" cy="-114" rx="18" ry="18"/>
</g>
<!-- a12 -->
<g id="node4" class="node"><title>a12</title>
<ellipse fill="none" stroke="#ee0000" cx="109" cy="-74" rx="18" ry="18"/>
</g>
<!-- x1&#45;&gt;a12 -->
<g id="edge1" class="edge"><title>x1&#45;&gt;a12</title>
<path fill="none" stroke="black" d="M50.1256,-105.712C59.9136,-100.349 72.8679,-93.2505 84.0385,-87.1296"/>
<polygon fill="black" stroke="black" points="85.8058,-90.1522 92.8937,-82.2774 82.4421,-84.0134 85.8058,-90.1522"/>
</g>
<!-- a22 -->
<g id="node5" class="node"><title>a22</title>
<ellipse fill="none" stroke="#ee0000" cx="109" cy="-34" rx="18" ry="18"/>
</g>
<!-- x1&#45;&gt;a22 -->
<g id="edge2" class="edge"><title>x1&#45;&gt;a22</title>
<path fill="none" stroke="black" d="M46.7287,-101.147C58.2228,-88.5504 75.9221,-69.1538 89.3479,-54.4407"/>
<polygon fill="black" stroke="black" points="92.1453,-56.5676 96.3004,-46.8215 86.9745,-51.8492 92.1453,-56.5676"/>
</g>
<!-- a32 -->
<g id="node6" class="node"><title>a32</title>
<ellipse fill="none" stroke="#ee0000" cx="109" cy="-194" rx="18" ry="18"/>
</g>
<!-- x1&#45;&gt;a32 -->
<g id="edge3" class="edge"><title>x1&#45;&gt;a32</title>
<path fill="none" stroke="black" d="M46.7287,-126.853C58.2228,-139.45 75.9221,-158.846 89.3479,-173.559"/>
<polygon fill="black" stroke="black" points="86.9745,-176.151 96.3004,-181.179 92.1453,-171.432 86.9745,-176.151"/>
</g>
<!-- a42 -->
<g id="node7" class="node"><title>a42</title>
<ellipse fill="none" stroke="#ee0000" cx="109" cy="-154" rx="18" ry="18"/>
</g>
<!-- x1&#45;&gt;a42 -->
<g id="edge4" class="edge"><title>x1&#45;&gt;a42</title>
<path fill="none" stroke="black" d="M50.1256,-122.288C59.9136,-127.651 72.8679,-134.75 84.0385,-140.87"/>
<polygon fill="black" stroke="black" points="82.4421,-143.987 92.8937,-145.723 85.8058,-137.848 82.4421,-143.987"/>
</g>
<!-- a52 -->
<g id="node8" class="node"><title>a52</title>
<ellipse fill="none" stroke="#ee0000" cx="109" cy="-114" rx="18" ry="18"/>
</g>
<!-- x1&#45;&gt;a52 -->
<g id="edge5" class="edge"><title>x1&#45;&gt;a52</title>
<path fill="none" stroke="black" d="M52.3,-114C60.7548,-114 71.1312,-114 80.6268,-114"/>
<polygon fill="black" stroke="black" points="80.8242,-117.5 90.8242,-114 80.8242,-110.5 80.8242,-117.5"/>
</g>
<!-- x2 -->
<g id="node2" class="node"><title>x2</title>
<ellipse fill="none" stroke="#00008b" cx="34" cy="-74" rx="18" ry="18"/>
</g>
<!-- x2&#45;&gt;a12 -->
<g id="edge6" class="edge"><title>x2&#45;&gt;a12</title>
<path fill="none" stroke="black" d="M52.3,-74C60.7548,-74 71.1312,-74 80.6268,-74"/>
<polygon fill="black" stroke="black" points="80.8242,-77.5001 90.8242,-74 80.8242,-70.5001 80.8242,-77.5001"/>
</g>
<!-- x2&#45;&gt;a22 -->
<g id="edge7" class="edge"><title>x2&#45;&gt;a22</title>
<path fill="none" stroke="black" d="M50.1256,-65.712C59.9136,-60.3487 72.8679,-53.2505 84.0385,-47.1296"/>
<polygon fill="black" stroke="black" points="85.8058,-50.1522 92.8937,-42.2774 82.4421,-44.0134 85.8058,-50.1522"/>
</g>
<!-- x2&#45;&gt;a32 -->
<g id="edge8" class="edge"><title>x2&#45;&gt;a32</title>
<path fill="none" stroke="black" d="M44.2455,-89.1981C56.6967,-109.666 78.9787,-146.294 93.6261,-170.372"/>
<polygon fill="black" stroke="black" points="90.6421,-172.201 98.8296,-178.925 96.6225,-168.563 90.6421,-172.201"/>
</g>
<!-- x2&#45;&gt;a42 -->
<g id="edge9" class="edge"><title>x2&#45;&gt;a42</title>
<path fill="none" stroke="black" d="M46.7287,-86.8534C58.2228,-99.4496 75.9221,-118.846 89.3479,-133.559"/>
<polygon fill="black" stroke="black" points="86.9745,-136.151 96.3004,-141.179 92.1453,-131.432 86.9745,-136.151"/>
</g>
<!-- x2&#45;&gt;a52 -->
<g id="edge10" class="edge"><title>x2&#45;&gt;a52</title>
<path fill="none" stroke="black" d="M50.1256,-82.288C59.9136,-87.6513 72.8679,-94.7495 84.0385,-100.87"/>
<polygon fill="black" stroke="black" points="82.4421,-103.987 92.8937,-105.723 85.8058,-97.8478 82.4421,-103.987"/>
</g>
<!-- x3 -->
<g id="node3" class="node"><title>x3</title>
<ellipse fill="none" stroke="#00008b" cx="34" cy="-154" rx="18" ry="18"/>
</g>
<!-- x3&#45;&gt;a12 -->
<g id="edge11" class="edge"><title>x3&#45;&gt;a12</title>
<path fill="none" stroke="black" d="M46.7287,-141.147C58.2228,-128.55 75.9221,-109.154 89.3479,-94.4407"/>
<polygon fill="black" stroke="black" points="92.1453,-96.5676 96.3004,-86.8215 86.9745,-91.8492 92.1453,-96.5676"/>
</g>
<!-- x3&#45;&gt;a22 -->
<g id="edge12" class="edge"><title>x3&#45;&gt;a22</title>
<path fill="none" stroke="black" d="M44.2455,-138.802C56.6967,-118.334 78.9787,-81.7062 93.6261,-57.6284"/>
<polygon fill="black" stroke="black" points="96.6225,-59.4371 98.8296,-49.0747 90.6421,-55.799 96.6225,-59.4371"/>
</g>
<!-- x3&#45;&gt;a32 -->
<g id="edge13" class="edge"><title>x3&#45;&gt;a32</title>
<path fill="none" stroke="black" d="M50.1256,-162.288C59.9136,-167.651 72.8679,-174.75 84.0385,-180.87"/>
<polygon fill="black" stroke="black" points="82.4421,-183.987 92.8937,-185.723 85.8058,-177.848 82.4421,-183.987"/>
</g>
<!-- x3&#45;&gt;a42 -->
<g id="edge14" class="edge"><title>x3&#45;&gt;a42</title>
<path fill="none" stroke="black" d="M52.3,-154C60.7548,-154 71.1312,-154 80.6268,-154"/>
<polygon fill="black" stroke="black" points="80.8242,-157.5 90.8242,-154 80.8242,-150.5 80.8242,-157.5"/>
</g>
<!-- x3&#45;&gt;a52 -->
<g id="edge15" class="edge"><title>x3&#45;&gt;a52</title>
<path fill="none" stroke="black" d="M50.1256,-145.712C59.9136,-140.349 72.8679,-133.25 84.0385,-127.13"/>
<polygon fill="black" stroke="black" points="85.8058,-130.152 92.8937,-122.277 82.4421,-124.013 85.8058,-130.152"/>
</g>
<!-- a13 -->
<g id="node9" class="node"><title>a13</title>
<ellipse fill="none" stroke="#ee0000" cx="184" cy="-74" rx="18" ry="18"/>
</g>
<!-- a12&#45;&gt;a13 -->
<g id="edge16" class="edge"><title>a12&#45;&gt;a13</title>
<path fill="none" stroke="black" d="M127.3,-74C135.755,-74 146.131,-74 155.627,-74"/>
<polygon fill="black" stroke="black" points="155.824,-77.5001 165.824,-74 155.824,-70.5001 155.824,-77.5001"/>
</g>
<!-- a23 -->
<g id="node10" class="node"><title>a23</title>
<ellipse fill="none" stroke="#ee0000" cx="184" cy="-34" rx="18" ry="18"/>
</g>
<!-- a12&#45;&gt;a23 -->
<g id="edge21" class="edge"><title>a12&#45;&gt;a23</title>
<path fill="none" stroke="black" d="M125.126,-65.712C134.914,-60.3487 147.868,-53.2505 159.039,-47.1296"/>
<polygon fill="black" stroke="black" points="160.806,-50.1522 167.894,-42.2774 157.442,-44.0134 160.806,-50.1522"/>
</g>
<!-- a33 -->
<g id="node11" class="node"><title>a33</title>
<ellipse fill="none" stroke="#ee0000" cx="184" cy="-194" rx="18" ry="18"/>
</g>
<!-- a12&#45;&gt;a33 -->
<g id="edge26" class="edge"><title>a12&#45;&gt;a33</title>
<path fill="none" stroke="black" d="M119.246,-89.1981C131.697,-109.666 153.979,-146.294 168.626,-170.372"/>
<polygon fill="black" stroke="black" points="165.642,-172.201 173.83,-178.925 171.622,-168.563 165.642,-172.201"/>
</g>
<!-- a43 -->
<g id="node12" class="node"><title>a43</title>
<ellipse fill="none" stroke="#ee0000" cx="184" cy="-154" rx="18" ry="18"/>
</g>
<!-- a12&#45;&gt;a43 -->
<g id="edge31" class="edge"><title>a12&#45;&gt;a43</title>
<path fill="none" stroke="black" d="M121.729,-86.8534C133.223,-99.4496 150.922,-118.846 164.348,-133.559"/>
<polygon fill="black" stroke="black" points="161.974,-136.151 171.3,-141.179 167.145,-131.432 161.974,-136.151"/>
</g>
<!-- a53 -->
<g id="node13" class="node"><title>a53</title>
<ellipse fill="none" stroke="#ee0000" cx="184" cy="-114" rx="18" ry="18"/>
</g>
<!-- a12&#45;&gt;a53 -->
<g id="edge36" class="edge"><title>a12&#45;&gt;a53</title>
<path fill="none" stroke="black" d="M125.126,-82.288C134.914,-87.6513 147.868,-94.7495 159.039,-100.87"/>
<polygon fill="black" stroke="black" points="157.442,-103.987 167.894,-105.723 160.806,-97.8478 157.442,-103.987"/>
</g>
<!-- a22&#45;&gt;a13 -->
<g id="edge17" class="edge"><title>a22&#45;&gt;a13</title>
<path fill="none" stroke="black" d="M125.126,-42.288C134.914,-47.6513 147.868,-54.7495 159.039,-60.8704"/>
<polygon fill="black" stroke="black" points="157.442,-63.9866 167.894,-65.7226 160.806,-57.8478 157.442,-63.9866"/>
</g>
<!-- a22&#45;&gt;a23 -->
<g id="edge22" class="edge"><title>a22&#45;&gt;a23</title>
<path fill="none" stroke="black" d="M127.3,-34C135.755,-34 146.131,-34 155.627,-34"/>
<polygon fill="black" stroke="black" points="155.824,-37.5001 165.824,-34 155.824,-30.5001 155.824,-37.5001"/>
</g>
<!-- a22&#45;&gt;a33 -->
<g id="edge27" class="edge"><title>a22&#45;&gt;a33</title>
<path fill="none" stroke="black" d="M117.401,-50.2222C130.081,-78.0136 156.056,-134.945 171.24,-168.224"/>
<polygon fill="black" stroke="black" points="168.244,-170.09 175.579,-177.735 174.612,-167.184 168.244,-170.09"/>
</g>
<!-- a22&#45;&gt;a43 -->
<g id="edge32" class="edge"><title>a22&#45;&gt;a43</title>
<path fill="none" stroke="black" d="M119.246,-49.1981C131.697,-69.6658 153.979,-106.294 168.626,-130.372"/>
<polygon fill="black" stroke="black" points="165.642,-132.201 173.83,-138.925 171.622,-128.563 165.642,-132.201"/>
</g>
<!-- a22&#45;&gt;a53 -->
<g id="edge37" class="edge"><title>a22&#45;&gt;a53</title>
<path fill="none" stroke="black" d="M121.729,-46.8534C133.223,-59.4496 150.922,-78.8462 164.348,-93.5593"/>
<polygon fill="black" stroke="black" points="161.974,-96.1508 171.3,-101.179 167.145,-91.4324 161.974,-96.1508"/>
</g>
<!-- a32&#45;&gt;a13 -->
<g id="edge18" class="edge"><title>a32&#45;&gt;a13</title>
<path fill="none" stroke="black" d="M119.246,-178.802C131.697,-158.334 153.979,-121.706 168.626,-97.6284"/>
<polygon fill="black" stroke="black" points="171.622,-99.4371 173.83,-89.0747 165.642,-95.799 171.622,-99.4371"/>
</g>
<!-- a32&#45;&gt;a23 -->
<g id="edge23" class="edge"><title>a32&#45;&gt;a23</title>
<path fill="none" stroke="black" d="M117.401,-177.778C130.081,-149.986 156.056,-93.0553 171.24,-59.7755"/>
<polygon fill="black" stroke="black" points="174.612,-60.8157 175.579,-50.2651 168.244,-57.9101 174.612,-60.8157"/>
</g>
<!-- a32&#45;&gt;a33 -->
<g id="edge28" class="edge"><title>a32&#45;&gt;a33</title>
<path fill="none" stroke="black" d="M127.3,-194C135.755,-194 146.131,-194 155.627,-194"/>
<polygon fill="black" stroke="black" points="155.824,-197.5 165.824,-194 155.824,-190.5 155.824,-197.5"/>
</g>
<!-- a32&#45;&gt;a43 -->
<g id="edge33" class="edge"><title>a32&#45;&gt;a43</title>
<path fill="none" stroke="black" d="M125.126,-185.712C134.914,-180.349 147.868,-173.25 159.039,-167.13"/>
<polygon fill="black" stroke="black" points="160.806,-170.152 167.894,-162.277 157.442,-164.013 160.806,-170.152"/>
</g>
<!-- a32&#45;&gt;a53 -->
<g id="edge38" class="edge"><title>a32&#45;&gt;a53</title>
<path fill="none" stroke="black" d="M121.729,-181.147C133.223,-168.55 150.922,-149.154 164.348,-134.441"/>
<polygon fill="black" stroke="black" points="167.145,-136.568 171.3,-126.821 161.974,-131.849 167.145,-136.568"/>
</g>
<!-- a42&#45;&gt;a13 -->
<g id="edge19" class="edge"><title>a42&#45;&gt;a13</title>
<path fill="none" stroke="black" d="M121.729,-141.147C133.223,-128.55 150.922,-109.154 164.348,-94.4407"/>
<polygon fill="black" stroke="black" points="167.145,-96.5676 171.3,-86.8215 161.974,-91.8492 167.145,-96.5676"/>
</g>
<!-- a42&#45;&gt;a23 -->
<g id="edge24" class="edge"><title>a42&#45;&gt;a23</title>
<path fill="none" stroke="black" d="M119.246,-138.802C131.697,-118.334 153.979,-81.7062 168.626,-57.6284"/>
<polygon fill="black" stroke="black" points="171.622,-59.4371 173.83,-49.0747 165.642,-55.799 171.622,-59.4371"/>
</g>
<!-- a42&#45;&gt;a33 -->
<g id="edge29" class="edge"><title>a42&#45;&gt;a33</title>
<path fill="none" stroke="black" d="M125.126,-162.288C134.914,-167.651 147.868,-174.75 159.039,-180.87"/>
<polygon fill="black" stroke="black" points="157.442,-183.987 167.894,-185.723 160.806,-177.848 157.442,-183.987"/>
</g>
<!-- a42&#45;&gt;a43 -->
<g id="edge34" class="edge"><title>a42&#45;&gt;a43</title>
<path fill="none" stroke="black" d="M127.3,-154C135.755,-154 146.131,-154 155.627,-154"/>
<polygon fill="black" stroke="black" points="155.824,-157.5 165.824,-154 155.824,-150.5 155.824,-157.5"/>
</g>
<!-- a42&#45;&gt;a53 -->
<g id="edge39" class="edge"><title>a42&#45;&gt;a53</title>
<path fill="none" stroke="black" d="M125.126,-145.712C134.914,-140.349 147.868,-133.25 159.039,-127.13"/>
<polygon fill="black" stroke="black" points="160.806,-130.152 167.894,-122.277 157.442,-124.013 160.806,-130.152"/>
</g>
<!-- a52&#45;&gt;a13 -->
<g id="edge20" class="edge"><title>a52&#45;&gt;a13</title>
<path fill="none" stroke="black" d="M125.126,-105.712C134.914,-100.349 147.868,-93.2505 159.039,-87.1296"/>
<polygon fill="black" stroke="black" points="160.806,-90.1522 167.894,-82.2774 157.442,-84.0134 160.806,-90.1522"/>
</g>
<!-- a52&#45;&gt;a23 -->
<g id="edge25" class="edge"><title>a52&#45;&gt;a23</title>
<path fill="none" stroke="black" d="M121.729,-101.147C133.223,-88.5504 150.922,-69.1538 164.348,-54.4407"/>
<polygon fill="black" stroke="black" points="167.145,-56.5676 171.3,-46.8215 161.974,-51.8492 167.145,-56.5676"/>
</g>
<!-- a52&#45;&gt;a33 -->
<g id="edge30" class="edge"><title>a52&#45;&gt;a33</title>
<path fill="none" stroke="black" d="M121.729,-126.853C133.223,-139.45 150.922,-158.846 164.348,-173.559"/>
<polygon fill="black" stroke="black" points="161.974,-176.151 171.3,-181.179 167.145,-171.432 161.974,-176.151"/>
</g>
<!-- a52&#45;&gt;a43 -->
<g id="edge35" class="edge"><title>a52&#45;&gt;a43</title>
<path fill="none" stroke="black" d="M125.126,-122.288C134.914,-127.651 147.868,-134.75 159.039,-140.87"/>
<polygon fill="black" stroke="black" points="157.442,-143.987 167.894,-145.723 160.806,-137.848 157.442,-143.987"/>
</g>
<!-- a52&#45;&gt;a53 -->
<g id="edge40" class="edge"><title>a52&#45;&gt;a53</title>
<path fill="none" stroke="black" d="M127.3,-114C135.755,-114 146.131,-114 155.627,-114"/>
<polygon fill="black" stroke="black" points="155.824,-117.5 165.824,-114 155.824,-110.5 155.824,-117.5"/>
</g>
<!-- O1 -->
<g id="node14" class="node"><title>O1</title>
<ellipse fill="none" stroke="#4eee94" cx="259" cy="-174" rx="18" ry="18"/>
</g>
<!-- a13&#45;&gt;O1 -->
<g id="edge41" class="edge"><title>a13&#45;&gt;O1</title>
<path fill="none" stroke="black" d="M195.459,-88.3276C207.493,-104.813 227.408,-132.093 241.529,-151.437"/>
<polygon fill="black" stroke="black" points="238.837,-153.686 247.56,-159.699 244.491,-149.558 238.837,-153.686"/>
</g>
<!-- O2 -->
<g id="node15" class="node"><title>O2</title>
<ellipse fill="none" stroke="#4eee94" cx="259" cy="-134" rx="18" ry="18"/>
</g>
<!-- a13&#45;&gt;O2 -->
<g id="edge46" class="edge"><title>a13&#45;&gt;O2</title>
<path fill="none" stroke="black" d="M198.389,-85.0049C209.091,-93.801 224.296,-106.298 236.671,-116.469"/>
<polygon fill="black" stroke="black" points="234.748,-119.419 244.696,-123.065 239.193,-114.011 234.748,-119.419"/>
</g>
<!-- O3 -->
<g id="node16" class="node"><title>O3</title>
<ellipse fill="none" stroke="#4eee94" cx="259" cy="-94" rx="18" ry="18"/>
</g>
<!-- a13&#45;&gt;O3 -->
<g id="edge51" class="edge"><title>a13&#45;&gt;O3</title>
<path fill="none" stroke="black" d="M201.565,-78.5383C210.432,-80.9676 221.563,-84.0172 231.591,-86.7646"/>
<polygon fill="black" stroke="black" points="230.931,-90.2128 241.501,-89.4797 232.781,-83.4616 230.931,-90.2128"/>
</g>
<!-- O4 -->
<g id="node17" class="node"><title>O4</title>
<ellipse fill="none" stroke="#4eee94" cx="259" cy="-54" rx="18" ry="18"/>
</g>
<!-- a13&#45;&gt;O4 -->
<g id="edge56" class="edge"><title>a13&#45;&gt;O4</title>
<path fill="none" stroke="black" d="M201.565,-69.4617C210.432,-67.0324 221.563,-63.9828 231.591,-61.2354"/>
<polygon fill="black" stroke="black" points="232.781,-64.5384 241.501,-58.5203 230.931,-57.7872 232.781,-64.5384"/>
</g>
<!-- a23&#45;&gt;O1 -->
<g id="edge42" class="edge"><title>a23&#45;&gt;O1</title>
<path fill="none" stroke="black" d="M193.232,-49.7876C205.828,-73.9449 229.998,-120.297 244.985,-149.04"/>
<polygon fill="black" stroke="black" points="241.959,-150.807 249.686,-158.055 248.166,-147.57 241.959,-150.807"/>
</g>
<!-- a23&#45;&gt;O2 -->
<g id="edge47" class="edge"><title>a23&#45;&gt;O2</title>
<path fill="none" stroke="black" d="M195.459,-48.3276C207.493,-64.8128 227.408,-92.0931 241.529,-111.437"/>
<polygon fill="black" stroke="black" points="238.837,-113.686 247.56,-119.699 244.491,-109.558 238.837,-113.686"/>
</g>
<!-- a23&#45;&gt;O3 -->
<g id="edge52" class="edge"><title>a23&#45;&gt;O3</title>
<path fill="none" stroke="black" d="M198.389,-45.0049C209.091,-53.801 224.296,-66.2981 236.671,-76.4691"/>
<polygon fill="black" stroke="black" points="234.748,-79.4191 244.696,-83.0648 239.193,-74.0113 234.748,-79.4191"/>
</g>
<!-- a23&#45;&gt;O4 -->
<g id="edge57" class="edge"><title>a23&#45;&gt;O4</title>
<path fill="none" stroke="black" d="M201.565,-38.5383C210.432,-40.9676 221.563,-44.0172 231.591,-46.7646"/>
<polygon fill="black" stroke="black" points="230.931,-50.2128 241.501,-49.4797 232.781,-43.4616 230.931,-50.2128"/>
</g>
<!-- a33&#45;&gt;O1 -->
<g id="edge43" class="edge"><title>a33&#45;&gt;O1</title>
<path fill="none" stroke="black" d="M201.565,-189.462C210.432,-187.032 221.563,-183.983 231.591,-181.235"/>
<polygon fill="black" stroke="black" points="232.781,-184.538 241.501,-178.52 230.931,-177.787 232.781,-184.538"/>
</g>
<!-- a33&#45;&gt;O2 -->
<g id="edge48" class="edge"><title>a33&#45;&gt;O2</title>
<path fill="none" stroke="black" d="M198.389,-182.995C209.091,-174.199 224.296,-161.702 236.671,-151.531"/>
<polygon fill="black" stroke="black" points="239.193,-153.989 244.696,-144.935 234.748,-148.581 239.193,-153.989"/>
</g>
<!-- a33&#45;&gt;O3 -->
<g id="edge53" class="edge"><title>a33&#45;&gt;O3</title>
<path fill="none" stroke="black" d="M195.459,-179.672C207.493,-163.187 227.408,-135.907 241.529,-116.563"/>
<polygon fill="black" stroke="black" points="244.491,-118.442 247.56,-108.301 238.837,-114.314 244.491,-118.442"/>
</g>
<!-- a33&#45;&gt;O4 -->
<g id="edge58" class="edge"><title>a33&#45;&gt;O4</title>
<path fill="none" stroke="black" d="M193.232,-178.212C205.828,-154.055 229.998,-107.703 244.985,-78.9598"/>
<polygon fill="black" stroke="black" points="248.166,-80.43 249.686,-69.9447 241.959,-77.1935 248.166,-80.43"/>
</g>
<!-- a43&#45;&gt;O1 -->
<g id="edge44" class="edge"><title>a43&#45;&gt;O1</title>
<path fill="none" stroke="black" d="M201.565,-158.538C210.432,-160.968 221.563,-164.017 231.591,-166.765"/>
<polygon fill="black" stroke="black" points="230.931,-170.213 241.501,-169.48 232.781,-163.462 230.931,-170.213"/>
</g>
<!-- a43&#45;&gt;O2 -->
<g id="edge49" class="edge"><title>a43&#45;&gt;O2</title>
<path fill="none" stroke="black" d="M201.565,-149.462C210.432,-147.032 221.563,-143.983 231.591,-141.235"/>
<polygon fill="black" stroke="black" points="232.781,-144.538 241.501,-138.52 230.931,-137.787 232.781,-144.538"/>
</g>
<!-- a43&#45;&gt;O3 -->
<g id="edge54" class="edge"><title>a43&#45;&gt;O3</title>
<path fill="none" stroke="black" d="M198.389,-142.995C209.091,-134.199 224.296,-121.702 236.671,-111.531"/>
<polygon fill="black" stroke="black" points="239.193,-113.989 244.696,-104.935 234.748,-108.581 239.193,-113.989"/>
</g>
<!-- a43&#45;&gt;O4 -->
<g id="edge59" class="edge"><title>a43&#45;&gt;O4</title>
<path fill="none" stroke="black" d="M195.459,-139.672C207.493,-123.187 227.408,-95.9069 241.529,-76.563"/>
<polygon fill="black" stroke="black" points="244.491,-78.4415 247.56,-68.301 238.837,-74.3142 244.491,-78.4415"/>
</g>
<!-- a53&#45;&gt;O1 -->
<g id="edge45" class="edge"><title>a53&#45;&gt;O1</title>
<path fill="none" stroke="black" d="M198.389,-125.005C209.091,-133.801 224.296,-146.298 236.671,-156.469"/>
<polygon fill="black" stroke="black" points="234.748,-159.419 244.696,-163.065 239.193,-154.011 234.748,-159.419"/>
</g>
<!-- a53&#45;&gt;O2 -->
<g id="edge50" class="edge"><title>a53&#45;&gt;O2</title>
<path fill="none" stroke="black" d="M201.565,-118.538C210.432,-120.968 221.563,-124.017 231.591,-126.765"/>
<polygon fill="black" stroke="black" points="230.931,-130.213 241.501,-129.48 232.781,-123.462 230.931,-130.213"/>
</g>
<!-- a53&#45;&gt;O3 -->
<g id="edge55" class="edge"><title>a53&#45;&gt;O3</title>
<path fill="none" stroke="black" d="M201.565,-109.462C210.432,-107.032 221.563,-103.983 231.591,-101.235"/>
<polygon fill="black" stroke="black" points="232.781,-104.538 241.501,-98.5203 230.931,-97.7872 232.781,-104.538"/>
</g>
<!-- a53&#45;&gt;O4 -->
<g id="edge60" class="edge"><title>a53&#45;&gt;O4</title>
<path fill="none" stroke="black" d="M198.389,-102.995C209.091,-94.199 224.296,-81.7019 236.671,-71.5309"/>
<polygon fill="black" stroke="black" points="239.193,-73.9887 244.696,-64.9352 234.748,-68.5809 239.193,-73.9887"/>
</g>
</g>
</svg>
