<?xml version="1.0" encoding="UTF-8" standalone="no"?>
<!DOCTYPE svg PUBLIC "-//W3C//DTD SVG 1.1//EN"
 "http://www.w3.org/Graphics/SVG/1.1/DTD/svg11.dtd">
<!-- Generated by graphviz version 2.36.0 (20140111.2315)
 -->
<!-- Title: G Pages: 1 -->
<svg width="292pt" height="205pt"
 viewBox="0.00 0.00 292.00 205.00" xmlns="http://www.w3.org/2000/svg" xmlns:xlink="http://www.w3.org/1999/xlink">
<g id="graph0" class="graph" transform="scale(1 1) rotate(0) translate(4 201)">
<title>G</title>
<polygon fill="white" stroke="none" points="-4,4 -4,-201 288,-201 288,4 -4,4"/>
<g id="clust1" class="cluster"><title>cluster_0</title>
<polygon fill="none" stroke="white" points="8,-29 8,-167 60,-167 60,-29 8,-29"/>
</g>
<g id="clust2" class="cluster"><title>cluster_1</title>
<polygon fill="none" stroke="white" points="80,-8 80,-189 132,-189 132,-8 80,-8"/>
</g>
<g id="clust3" class="cluster"><title>cluster_2</title>
<polygon fill="none" stroke="white" points="152,-8 152,-189 204,-189 204,-8 152,-8"/>
</g>
<g id="clust4" class="cluster"><title>cluster_3</title>
<polygon fill="none" stroke="white" points="224,-51 224,-146 276,-146 276,-51 224,-51"/>
</g>
<!-- x1 -->
<g id="node1" class="node"><title>x1</title>
<ellipse fill="none" stroke="black" cx="34" cy="-98" rx="18" ry="18"/>
</g>
<!-- a12 -->
<g id="node4" class="node"><title>a12</title>
<ellipse fill="none" stroke="black" cx="106" cy="-163" rx="18" ry="18"/>
</g>
<!-- x1&#45;&gt;a12 -->
<g id="edge1" class="edge"><title>x1&#45;&gt;a12</title>
<path fill="none" stroke="black" d="M47.8391,-109.922C58.1998,-119.543 72.9619,-133.25 84.8888,-144.325"/>
<polygon fill="black" stroke="black" points="82.5328,-146.914 92.2423,-151.154 87.2959,-141.784 82.5328,-146.914"/>
</g>
<!-- a22 -->
<g id="node5" class="node"><title>a22</title>
<ellipse fill="none" stroke="black" cx="106" cy="-120" rx="18" ry="18"/>
</g>
<!-- x1&#45;&gt;a22 -->
<g id="edge2" class="edge"><title>x1&#45;&gt;a22</title>
<path fill="none" stroke="black" d="M51.589,-103.214C59.6964,-105.762 69.6463,-108.889 78.7518,-111.751"/>
<polygon fill="black" stroke="black" points="77.9407,-115.164 88.5301,-114.824 80.0395,-108.486 77.9407,-115.164"/>
</g>
<!-- a32 -->
<g id="node6" class="node"><title>a32</title>
<ellipse fill="none" stroke="black" cx="106" cy="-77" rx="18" ry="18"/>
</g>
<!-- x1&#45;&gt;a32 -->
<g id="edge3" class="edge"><title>x1&#45;&gt;a32</title>
<path fill="none" stroke="black" d="M51.589,-93.0233C59.6964,-90.5911 69.6463,-87.6061 78.7518,-84.8745"/>
<polygon fill="black" stroke="black" points="79.9575,-88.1669 88.5301,-81.941 77.946,-81.4621 79.9575,-88.1669"/>
</g>
<!-- a42 -->
<g id="node7" class="node"><title>a42</title>
<ellipse fill="none" stroke="black" cx="106" cy="-34" rx="18" ry="18"/>
</g>
<!-- x1&#45;&gt;a42 -->
<g id="edge4" class="edge"><title>x1&#45;&gt;a42</title>
<path fill="none" stroke="black" d="M47.8391,-86.2614C58.1012,-76.8789 72.6811,-63.5487 84.5473,-52.6996"/>
<polygon fill="black" stroke="black" points="87.2237,-54.995 92.2423,-45.6642 82.5003,-49.8288 87.2237,-54.995"/>
</g>
<!-- x2 -->
<g id="node2" class="node"><title>x2</title>
<ellipse fill="none" stroke="black" cx="34" cy="-55" rx="18" ry="18"/>
</g>
<!-- x2&#45;&gt;a12 -->
<g id="edge5" class="edge"><title>x2&#45;&gt;a12</title>
<path fill="none" stroke="black" d="M44.7332,-70.0169C56.4352,-88.0714 76.2059,-118.575 89.8959,-139.696"/>
<polygon fill="black" stroke="black" points="86.9734,-141.623 95.3495,-148.111 92.8475,-137.815 86.9734,-141.623"/>
</g>
<!-- x2&#45;&gt;a22 -->
<g id="edge6" class="edge"><title>x2&#45;&gt;a22</title>
<path fill="none" stroke="black" d="M47.8391,-66.922C58.1998,-76.5427 72.9619,-90.2503 84.8888,-101.325"/>
<polygon fill="black" stroke="black" points="82.5328,-103.914 92.2423,-108.154 87.2959,-98.7842 82.5328,-103.914"/>
</g>
<!-- x2&#45;&gt;a32 -->
<g id="edge7" class="edge"><title>x2&#45;&gt;a32</title>
<path fill="none" stroke="black" d="M51.589,-60.2137C59.6964,-62.7617 69.6463,-65.8888 78.7518,-68.7506"/>
<polygon fill="black" stroke="black" points="77.9407,-72.1644 88.5301,-71.8237 80.0395,-65.4864 77.9407,-72.1644"/>
</g>
<!-- x2&#45;&gt;a42 -->
<g id="edge8" class="edge"><title>x2&#45;&gt;a42</title>
<path fill="none" stroke="black" d="M51.589,-50.0233C59.6964,-47.5911 69.6463,-44.6061 78.7518,-41.8745"/>
<polygon fill="black" stroke="black" points="79.9575,-45.1669 88.5301,-38.941 77.946,-38.4621 79.9575,-45.1669"/>
</g>
<!-- x3 -->
<g id="node3" class="node"><title>x3</title>
<ellipse fill="none" stroke="black" cx="34" cy="-141" rx="18" ry="18"/>
</g>
<!-- x3&#45;&gt;a12 -->
<g id="edge9" class="edge"><title>x3&#45;&gt;a12</title>
<path fill="none" stroke="black" d="M51.589,-146.214C59.6964,-148.762 69.6463,-151.889 78.7518,-154.751"/>
<polygon fill="black" stroke="black" points="77.9407,-158.164 88.5301,-157.824 80.0395,-151.486 77.9407,-158.164"/>
</g>
<!-- x3&#45;&gt;a22 -->
<g id="edge10" class="edge"><title>x3&#45;&gt;a22</title>
<path fill="none" stroke="black" d="M51.589,-136.023C59.6964,-133.591 69.6463,-130.606 78.7518,-127.874"/>
<polygon fill="black" stroke="black" points="79.9575,-131.167 88.5301,-124.941 77.946,-124.462 79.9575,-131.167"/>
</g>
<!-- x3&#45;&gt;a32 -->
<g id="edge11" class="edge"><title>x3&#45;&gt;a32</title>
<path fill="none" stroke="black" d="M47.8391,-129.261C58.1012,-119.879 72.6811,-106.549 84.5473,-95.6996"/>
<polygon fill="black" stroke="black" points="87.2237,-97.995 92.2423,-88.6642 82.5003,-92.8288 87.2237,-97.995"/>
</g>
<!-- x3&#45;&gt;a42 -->
<g id="edge12" class="edge"><title>x3&#45;&gt;a42</title>
<path fill="none" stroke="black" d="M44.7332,-126.122C56.3829,-108.315 76.0295,-78.2834 89.7122,-57.3685"/>
<polygon fill="black" stroke="black" points="92.8037,-59.036 95.3495,-48.7515 86.9459,-55.2037 92.8037,-59.036"/>
</g>
<!-- a13 -->
<g id="node8" class="node"><title>a13</title>
<ellipse fill="none" stroke="black" cx="178" cy="-163" rx="18" ry="18"/>
</g>
<!-- a12&#45;&gt;a13 -->
<g id="edge13" class="edge"><title>a12&#45;&gt;a13</title>
<path fill="none" stroke="black" d="M124.303,-163C132.017,-163 141.288,-163 149.888,-163"/>
<polygon fill="black" stroke="black" points="149.896,-166.5 159.896,-163 149.896,-159.5 149.896,-166.5"/>
</g>
<!-- a23 -->
<g id="node9" class="node"><title>a23</title>
<ellipse fill="none" stroke="black" cx="178" cy="-120" rx="18" ry="18"/>
</g>
<!-- a12&#45;&gt;a23 -->
<g id="edge17" class="edge"><title>a12&#45;&gt;a23</title>
<path fill="none" stroke="black" d="M121.845,-153.881C131.033,-148.237 143.032,-140.866 153.491,-134.441"/>
<polygon fill="black" stroke="black" points="155.487,-137.323 162.176,-129.106 151.823,-131.358 155.487,-137.323"/>
</g>
<!-- a33 -->
<g id="node10" class="node"><title>a33</title>
<ellipse fill="none" stroke="black" cx="178" cy="-77" rx="18" ry="18"/>
</g>
<!-- a12&#45;&gt;a33 -->
<g id="edge21" class="edge"><title>a12&#45;&gt;a33</title>
<path fill="none" stroke="black" d="M118.247,-149.183C129.334,-135.562 146.441,-114.543 159.342,-98.6935"/>
<polygon fill="black" stroke="black" points="162.414,-100.465 166.012,-90.4996 156.985,-96.0457 162.414,-100.465"/>
</g>
<!-- a43 -->
<g id="node11" class="node"><title>a43</title>
<ellipse fill="none" stroke="black" cx="178" cy="-34" rx="18" ry="18"/>
</g>
<!-- a12&#45;&gt;a43 -->
<g id="edge25" class="edge"><title>a12&#45;&gt;a43</title>
<path fill="none" stroke="black" d="M115.444,-147.44C127.426,-125.357 149.484,-84.7085 163.684,-58.5402"/>
<polygon fill="black" stroke="black" points="166.833,-60.0743 168.526,-49.6156 160.681,-56.7356 166.833,-60.0743"/>
</g>
<!-- a22&#45;&gt;a13 -->
<g id="edge14" class="edge"><title>a22&#45;&gt;a13</title>
<path fill="none" stroke="black" d="M121.845,-129.119C131.033,-134.763 143.032,-142.134 153.491,-148.559"/>
<polygon fill="black" stroke="black" points="151.823,-151.642 162.176,-153.894 155.487,-145.677 151.823,-151.642"/>
</g>
<!-- a22&#45;&gt;a23 -->
<g id="edge18" class="edge"><title>a22&#45;&gt;a23</title>
<path fill="none" stroke="black" d="M124.303,-120C132.017,-120 141.288,-120 149.888,-120"/>
<polygon fill="black" stroke="black" points="149.896,-123.5 159.896,-120 149.896,-116.5 149.896,-123.5"/>
</g>
<!-- a22&#45;&gt;a33 -->
<g id="edge22" class="edge"><title>a22&#45;&gt;a33</title>
<path fill="none" stroke="black" d="M121.845,-110.881C131.033,-105.237 143.032,-97.8662 153.491,-91.4414"/>
<polygon fill="black" stroke="black" points="155.487,-94.3225 162.176,-86.106 151.823,-88.358 155.487,-94.3225"/>
</g>
<!-- a22&#45;&gt;a43 -->
<g id="edge26" class="edge"><title>a22&#45;&gt;a43</title>
<path fill="none" stroke="black" d="M118.247,-106.183C129.334,-92.5615 146.441,-71.5434 159.342,-55.6935"/>
<polygon fill="black" stroke="black" points="162.414,-57.4647 166.012,-47.4996 156.985,-53.0457 162.414,-57.4647"/>
</g>
<!-- a32&#45;&gt;a13 -->
<g id="edge15" class="edge"><title>a32&#45;&gt;a13</title>
<path fill="none" stroke="black" d="M118.247,-90.8174C129.334,-104.438 146.441,-125.457 159.342,-141.306"/>
<polygon fill="black" stroke="black" points="156.985,-143.954 166.012,-149.5 162.414,-139.535 156.985,-143.954"/>
</g>
<!-- a32&#45;&gt;a23 -->
<g id="edge19" class="edge"><title>a32&#45;&gt;a23</title>
<path fill="none" stroke="black" d="M121.845,-86.1192C131.033,-91.7632 143.032,-99.1338 153.491,-105.559"/>
<polygon fill="black" stroke="black" points="151.823,-108.642 162.176,-110.894 155.487,-102.677 151.823,-108.642"/>
</g>
<!-- a32&#45;&gt;a33 -->
<g id="edge23" class="edge"><title>a32&#45;&gt;a33</title>
<path fill="none" stroke="black" d="M124.303,-77C132.017,-77 141.288,-77 149.888,-77"/>
<polygon fill="black" stroke="black" points="149.896,-80.5001 159.896,-77 149.896,-73.5001 149.896,-80.5001"/>
</g>
<!-- a32&#45;&gt;a43 -->
<g id="edge27" class="edge"><title>a32&#45;&gt;a43</title>
<path fill="none" stroke="black" d="M121.845,-67.8808C131.033,-62.2368 143.032,-54.8662 153.491,-48.4414"/>
<polygon fill="black" stroke="black" points="155.487,-51.3225 162.176,-43.106 151.823,-45.358 155.487,-51.3225"/>
</g>
<!-- a42&#45;&gt;a13 -->
<g id="edge16" class="edge"><title>a42&#45;&gt;a13</title>
<path fill="none" stroke="black" d="M115.444,-49.5604C127.426,-71.6429 149.484,-112.291 163.684,-138.46"/>
<polygon fill="black" stroke="black" points="160.681,-140.264 168.526,-147.384 166.833,-136.926 160.681,-140.264"/>
</g>
<!-- a42&#45;&gt;a23 -->
<g id="edge20" class="edge"><title>a42&#45;&gt;a23</title>
<path fill="none" stroke="black" d="M118.247,-47.8174C129.334,-61.4385 146.441,-82.4566 159.342,-98.3065"/>
<polygon fill="black" stroke="black" points="156.985,-100.954 166.012,-106.5 162.414,-96.5353 156.985,-100.954"/>
</g>
<!-- a42&#45;&gt;a33 -->
<g id="edge24" class="edge"><title>a42&#45;&gt;a33</title>
<path fill="none" stroke="black" d="M121.845,-43.1192C131.033,-48.7632 143.032,-56.1338 153.491,-62.5586"/>
<polygon fill="black" stroke="black" points="151.823,-65.642 162.176,-67.894 155.487,-59.6775 151.823,-65.642"/>
</g>
<!-- a42&#45;&gt;a43 -->
<g id="edge28" class="edge"><title>a42&#45;&gt;a43</title>
<path fill="none" stroke="black" d="M124.303,-34C132.017,-34 141.288,-34 149.888,-34"/>
<polygon fill="black" stroke="black" points="149.896,-37.5001 159.896,-34 149.896,-30.5001 149.896,-37.5001"/>
</g>
<!-- O1 -->
<g id="node12" class="node"><title>O1</title>
<ellipse fill="none" stroke="black" cx="250" cy="-120" rx="18" ry="18"/>
</g>
<!-- a13&#45;&gt;O1 -->
<g id="edge29" class="edge"><title>a13&#45;&gt;O1</title>
<path fill="none" stroke="black" d="M193.845,-153.881C203.033,-148.237 215.032,-140.866 225.491,-134.441"/>
<polygon fill="black" stroke="black" points="227.487,-137.323 234.176,-129.106 223.823,-131.358 227.487,-137.323"/>
</g>
<!-- O2 -->
<g id="node13" class="node"><title>O2</title>
<ellipse fill="none" stroke="black" cx="250" cy="-77" rx="18" ry="18"/>
</g>
<!-- a13&#45;&gt;O2 -->
<g id="edge33" class="edge"><title>a13&#45;&gt;O2</title>
<path fill="none" stroke="black" d="M190.247,-149.183C201.334,-135.562 218.441,-114.543 231.342,-98.6935"/>
<polygon fill="black" stroke="black" points="234.414,-100.465 238.012,-90.4996 228.985,-96.0457 234.414,-100.465"/>
</g>
<!-- a23&#45;&gt;O1 -->
<g id="edge30" class="edge"><title>a23&#45;&gt;O1</title>
<path fill="none" stroke="black" d="M196.303,-120C204.017,-120 213.288,-120 221.888,-120"/>
<polygon fill="black" stroke="black" points="221.896,-123.5 231.896,-120 221.896,-116.5 221.896,-123.5"/>
</g>
<!-- a23&#45;&gt;O2 -->
<g id="edge34" class="edge"><title>a23&#45;&gt;O2</title>
<path fill="none" stroke="black" d="M193.845,-110.881C203.033,-105.237 215.032,-97.8662 225.491,-91.4414"/>
<polygon fill="black" stroke="black" points="227.487,-94.3225 234.176,-86.106 223.823,-88.358 227.487,-94.3225"/>
</g>
<!-- a33&#45;&gt;O1 -->
<g id="edge31" class="edge"><title>a33&#45;&gt;O1</title>
<path fill="none" stroke="black" d="M193.845,-86.1192C203.033,-91.7632 215.032,-99.1338 225.491,-105.559"/>
<polygon fill="black" stroke="black" points="223.823,-108.642 234.176,-110.894 227.487,-102.677 223.823,-108.642"/>
</g>
<!-- a33&#45;&gt;O2 -->
<g id="edge35" class="edge"><title>a33&#45;&gt;O2</title>
<path fill="none" stroke="black" d="M196.303,-77C204.017,-77 213.288,-77 221.888,-77"/>
<polygon fill="black" stroke="black" points="221.896,-80.5001 231.896,-77 221.896,-73.5001 221.896,-80.5001"/>
</g>
<!-- a43&#45;&gt;O1 -->
<g id="edge32" class="edge"><title>a43&#45;&gt;O1</title>
<path fill="none" stroke="black" d="M190.247,-47.8174C201.334,-61.4385 218.441,-82.4566 231.342,-98.3065"/>
<polygon fill="black" stroke="black" points="228.985,-100.954 238.012,-106.5 234.414,-96.5353 228.985,-100.954"/>
</g>
<!-- a43&#45;&gt;O2 -->
<g id="edge36" class="edge"><title>a43&#45;&gt;O2</title>
<path fill="none" stroke="black" d="M193.845,-43.1192C203.033,-48.7632 215.032,-56.1338 225.491,-62.5586"/>
<polygon fill="black" stroke="black" points="223.823,-65.642 234.176,-67.894 227.487,-59.6775 223.823,-65.642"/>
</g>
</g>
</svg>
