<?xml version="1.0" encoding="UTF-8" standalone="no"?>
<!DOCTYPE svg PUBLIC "-//W3C//DTD SVG 1.1//EN"
 "http://www.w3.org/Graphics/SVG/1.1/DTD/svg11.dtd">
<!-- Generated by graphviz version 2.36.0 (20140111.2315)
 -->
<!-- Title: G Pages: 1 -->
<svg width="440pt" height="205pt"
 viewBox="0.00 0.00 440.00 205.00" xmlns="http://www.w3.org/2000/svg" xmlns:xlink="http://www.w3.org/1999/xlink">
<g id="graph0" class="graph" transform="scale(1 1) rotate(0) translate(4 201)">
<title>G</title>
<polygon fill="white" stroke="none" points="-4,4 -4,-201 436,-201 436,4 -4,4"/>
<g id="clust2" class="cluster"><title>cluster_0</title>
<polygon fill="none" stroke="white" points="82,-29 82,-167 134,-167 134,-29 82,-29"/>
</g>
<g id="clust3" class="cluster"><title>cluster_1</title>
<polygon fill="none" stroke="white" points="154,-8 154,-189 206,-189 206,-8 154,-8"/>
</g>
<g id="clust4" class="cluster"><title>cluster_2</title>
<polygon fill="none" stroke="white" points="226,-8 226,-189 278,-189 278,-8 226,-8"/>
</g>
<g id="clust5" class="cluster"><title>cluster_3</title>
<polygon fill="none" stroke="white" points="298,-51 298,-146 350,-146 350,-51 298,-51"/>
</g>
<!-- I1_EMPTY -->
<g id="node1" class="node"><title>I1_EMPTY</title>
</g>
<!-- x1 -->
<g id="node4" class="node"><title>x1</title>
<ellipse fill="none" stroke="black" cx="108" cy="-141" rx="18" ry="18"/>
</g>
<!-- I1_EMPTY&#45;&gt;x1 -->
<g id="edge1" class="edge"><title>I1_EMPTY&#45;&gt;x1</title>
<path fill="none" stroke="black" d="M54.3059,-141C62.4202,-141 71.3739,-141 79.5625,-141"/>
<polygon fill="black" stroke="black" points="79.7516,-144.5 89.7516,-141 79.7516,-137.5 79.7516,-144.5"/>
</g>
<!-- I2_EMPTY -->
<g id="node2" class="node"><title>I2_EMPTY</title>
</g>
<!-- x2 -->
<g id="node5" class="node"><title>x2</title>
<ellipse fill="none" stroke="black" cx="108" cy="-98" rx="18" ry="18"/>
</g>
<!-- I2_EMPTY&#45;&gt;x2 -->
<g id="edge2" class="edge"><title>I2_EMPTY&#45;&gt;x2</title>
<path fill="none" stroke="black" d="M54.3059,-98C62.4202,-98 71.3739,-98 79.5625,-98"/>
<polygon fill="black" stroke="black" points="79.7516,-101.5 89.7516,-98 79.7516,-94.5001 79.7516,-101.5"/>
</g>
<!-- I3_EMPTY -->
<g id="node3" class="node"><title>I3_EMPTY</title>
</g>
<!-- x3 -->
<g id="node6" class="node"><title>x3</title>
<ellipse fill="none" stroke="black" cx="108" cy="-55" rx="18" ry="18"/>
</g>
<!-- I3_EMPTY&#45;&gt;x3 -->
<g id="edge3" class="edge"><title>I3_EMPTY&#45;&gt;x3</title>
<path fill="none" stroke="black" d="M54.3059,-55C62.4202,-55 71.3739,-55 79.5625,-55"/>
<polygon fill="black" stroke="black" points="79.7516,-58.5001 89.7516,-55 79.7516,-51.5001 79.7516,-58.5001"/>
</g>
<!-- a12 -->
<g id="node7" class="node"><title>a12</title>
<ellipse fill="none" stroke="black" cx="180" cy="-163" rx="18" ry="18"/>
</g>
<!-- x1&#45;&gt;a12 -->
<g id="edge4" class="edge"><title>x1&#45;&gt;a12</title>
<path fill="none" stroke="black" d="M125.589,-146.214C133.696,-148.762 143.646,-151.889 152.752,-154.751"/>
<polygon fill="black" stroke="black" points="151.941,-158.164 162.53,-157.824 154.04,-151.486 151.941,-158.164"/>
</g>
<!-- a22 -->
<g id="node8" class="node"><title>a22</title>
<ellipse fill="none" stroke="black" cx="180" cy="-120" rx="18" ry="18"/>
</g>
<!-- x1&#45;&gt;a22 -->
<g id="edge5" class="edge"><title>x1&#45;&gt;a22</title>
<path fill="none" stroke="black" d="M125.589,-136.023C133.696,-133.591 143.646,-130.606 152.752,-127.874"/>
<polygon fill="black" stroke="black" points="153.958,-131.167 162.53,-124.941 151.946,-124.462 153.958,-131.167"/>
</g>
<!-- a32 -->
<g id="node9" class="node"><title>a32</title>
<ellipse fill="none" stroke="black" cx="180" cy="-77" rx="18" ry="18"/>
</g>
<!-- x1&#45;&gt;a32 -->
<g id="edge6" class="edge"><title>x1&#45;&gt;a32</title>
<path fill="none" stroke="black" d="M121.839,-129.261C132.101,-119.879 146.681,-106.549 158.547,-95.6996"/>
<polygon fill="black" stroke="black" points="161.224,-97.995 166.242,-88.6642 156.5,-92.8288 161.224,-97.995"/>
</g>
<!-- a42 -->
<g id="node10" class="node"><title>a42</title>
<ellipse fill="none" stroke="black" cx="180" cy="-34" rx="18" ry="18"/>
</g>
<!-- x1&#45;&gt;a42 -->
<g id="edge7" class="edge"><title>x1&#45;&gt;a42</title>
<path fill="none" stroke="black" d="M118.733,-126.122C130.383,-108.315 150.03,-78.2834 163.712,-57.3685"/>
<polygon fill="black" stroke="black" points="166.804,-59.036 169.349,-48.7515 160.946,-55.2037 166.804,-59.036"/>
</g>
<!-- x2&#45;&gt;a12 -->
<g id="edge8" class="edge"><title>x2&#45;&gt;a12</title>
<path fill="none" stroke="black" d="M121.839,-109.922C132.2,-119.543 146.962,-133.25 158.889,-144.325"/>
<polygon fill="black" stroke="black" points="156.533,-146.914 166.242,-151.154 161.296,-141.784 156.533,-146.914"/>
</g>
<!-- x2&#45;&gt;a22 -->
<g id="edge9" class="edge"><title>x2&#45;&gt;a22</title>
<path fill="none" stroke="black" d="M125.589,-103.214C133.696,-105.762 143.646,-108.889 152.752,-111.751"/>
<polygon fill="black" stroke="black" points="151.941,-115.164 162.53,-114.824 154.04,-108.486 151.941,-115.164"/>
</g>
<!-- x2&#45;&gt;a32 -->
<g id="edge10" class="edge"><title>x2&#45;&gt;a32</title>
<path fill="none" stroke="black" d="M125.589,-93.0233C133.696,-90.5911 143.646,-87.6061 152.752,-84.8745"/>
<polygon fill="black" stroke="black" points="153.958,-88.1669 162.53,-81.941 151.946,-81.4621 153.958,-88.1669"/>
</g>
<!-- x2&#45;&gt;a42 -->
<g id="edge11" class="edge"><title>x2&#45;&gt;a42</title>
<path fill="none" stroke="black" d="M121.839,-86.2614C132.101,-76.8789 146.681,-63.5487 158.547,-52.6996"/>
<polygon fill="black" stroke="black" points="161.224,-54.995 166.242,-45.6642 156.5,-49.8288 161.224,-54.995"/>
</g>
<!-- x3&#45;&gt;a12 -->
<g id="edge12" class="edge"><title>x3&#45;&gt;a12</title>
<path fill="none" stroke="black" d="M118.733,-70.0169C130.435,-88.0714 150.206,-118.575 163.896,-139.696"/>
<polygon fill="black" stroke="black" points="160.973,-141.623 169.349,-148.111 166.848,-137.815 160.973,-141.623"/>
</g>
<!-- x3&#45;&gt;a22 -->
<g id="edge13" class="edge"><title>x3&#45;&gt;a22</title>
<path fill="none" stroke="black" d="M121.839,-66.922C132.2,-76.5427 146.962,-90.2503 158.889,-101.325"/>
<polygon fill="black" stroke="black" points="156.533,-103.914 166.242,-108.154 161.296,-98.7842 156.533,-103.914"/>
</g>
<!-- x3&#45;&gt;a32 -->
<g id="edge14" class="edge"><title>x3&#45;&gt;a32</title>
<path fill="none" stroke="black" d="M125.589,-60.2137C133.696,-62.7617 143.646,-65.8888 152.752,-68.7506"/>
<polygon fill="black" stroke="black" points="151.941,-72.1644 162.53,-71.8237 154.04,-65.4864 151.941,-72.1644"/>
</g>
<!-- x3&#45;&gt;a42 -->
<g id="edge15" class="edge"><title>x3&#45;&gt;a42</title>
<path fill="none" stroke="black" d="M125.589,-50.0233C133.696,-47.5911 143.646,-44.6061 152.752,-41.8745"/>
<polygon fill="black" stroke="black" points="153.958,-45.1669 162.53,-38.941 151.946,-38.4621 153.958,-45.1669"/>
</g>
<!-- a13 -->
<g id="node11" class="node"><title>a13</title>
<ellipse fill="none" stroke="black" cx="252" cy="-163" rx="18" ry="18"/>
</g>
<!-- a12&#45;&gt;a13 -->
<g id="edge16" class="edge"><title>a12&#45;&gt;a13</title>
<path fill="none" stroke="black" d="M198.303,-163C206.017,-163 215.288,-163 223.888,-163"/>
<polygon fill="black" stroke="black" points="223.896,-166.5 233.896,-163 223.896,-159.5 223.896,-166.5"/>
</g>
<!-- a23 -->
<g id="node12" class="node"><title>a23</title>
<ellipse fill="none" stroke="black" cx="252" cy="-120" rx="18" ry="18"/>
</g>
<!-- a12&#45;&gt;a23 -->
<g id="edge20" class="edge"><title>a12&#45;&gt;a23</title>
<path fill="none" stroke="black" d="M195.845,-153.881C205.033,-148.237 217.032,-140.866 227.491,-134.441"/>
<polygon fill="black" stroke="black" points="229.487,-137.323 236.176,-129.106 225.823,-131.358 229.487,-137.323"/>
</g>
<!-- a33 -->
<g id="node13" class="node"><title>a33</title>
<ellipse fill="none" stroke="black" cx="252" cy="-77" rx="18" ry="18"/>
</g>
<!-- a12&#45;&gt;a33 -->
<g id="edge24" class="edge"><title>a12&#45;&gt;a33</title>
<path fill="none" stroke="black" d="M192.247,-149.183C203.334,-135.562 220.441,-114.543 233.342,-98.6935"/>
<polygon fill="black" stroke="black" points="236.414,-100.465 240.012,-90.4996 230.985,-96.0457 236.414,-100.465"/>
</g>
<!-- a43 -->
<g id="node14" class="node"><title>a43</title>
<ellipse fill="none" stroke="black" cx="252" cy="-34" rx="18" ry="18"/>
</g>
<!-- a12&#45;&gt;a43 -->
<g id="edge28" class="edge"><title>a12&#45;&gt;a43</title>
<path fill="none" stroke="black" d="M189.444,-147.44C201.426,-125.357 223.484,-84.7085 237.684,-58.5402"/>
<polygon fill="black" stroke="black" points="240.833,-60.0743 242.526,-49.6156 234.681,-56.7356 240.833,-60.0743"/>
</g>
<!-- a22&#45;&gt;a13 -->
<g id="edge17" class="edge"><title>a22&#45;&gt;a13</title>
<path fill="none" stroke="black" d="M195.845,-129.119C205.033,-134.763 217.032,-142.134 227.491,-148.559"/>
<polygon fill="black" stroke="black" points="225.823,-151.642 236.176,-153.894 229.487,-145.677 225.823,-151.642"/>
</g>
<!-- a22&#45;&gt;a23 -->
<g id="edge21" class="edge"><title>a22&#45;&gt;a23</title>
<path fill="none" stroke="black" d="M198.303,-120C206.017,-120 215.288,-120 223.888,-120"/>
<polygon fill="black" stroke="black" points="223.896,-123.5 233.896,-120 223.896,-116.5 223.896,-123.5"/>
</g>
<!-- a22&#45;&gt;a33 -->
<g id="edge25" class="edge"><title>a22&#45;&gt;a33</title>
<path fill="none" stroke="black" d="M195.845,-110.881C205.033,-105.237 217.032,-97.8662 227.491,-91.4414"/>
<polygon fill="black" stroke="black" points="229.487,-94.3225 236.176,-86.106 225.823,-88.358 229.487,-94.3225"/>
</g>
<!-- a22&#45;&gt;a43 -->
<g id="edge29" class="edge"><title>a22&#45;&gt;a43</title>
<path fill="none" stroke="black" d="M192.247,-106.183C203.334,-92.5615 220.441,-71.5434 233.342,-55.6935"/>
<polygon fill="black" stroke="black" points="236.414,-57.4647 240.012,-47.4996 230.985,-53.0457 236.414,-57.4647"/>
</g>
<!-- a32&#45;&gt;a13 -->
<g id="edge18" class="edge"><title>a32&#45;&gt;a13</title>
<path fill="none" stroke="black" d="M192.247,-90.8174C203.334,-104.438 220.441,-125.457 233.342,-141.306"/>
<polygon fill="black" stroke="black" points="230.985,-143.954 240.012,-149.5 236.414,-139.535 230.985,-143.954"/>
</g>
<!-- a32&#45;&gt;a23 -->
<g id="edge22" class="edge"><title>a32&#45;&gt;a23</title>
<path fill="none" stroke="black" d="M195.845,-86.1192C205.033,-91.7632 217.032,-99.1338 227.491,-105.559"/>
<polygon fill="black" stroke="black" points="225.823,-108.642 236.176,-110.894 229.487,-102.677 225.823,-108.642"/>
</g>
<!-- a32&#45;&gt;a33 -->
<g id="edge26" class="edge"><title>a32&#45;&gt;a33</title>
<path fill="none" stroke="black" d="M198.303,-77C206.017,-77 215.288,-77 223.888,-77"/>
<polygon fill="black" stroke="black" points="223.896,-80.5001 233.896,-77 223.896,-73.5001 223.896,-80.5001"/>
</g>
<!-- a32&#45;&gt;a43 -->
<g id="edge30" class="edge"><title>a32&#45;&gt;a43</title>
<path fill="none" stroke="black" d="M195.845,-67.8808C205.033,-62.2368 217.032,-54.8662 227.491,-48.4414"/>
<polygon fill="black" stroke="black" points="229.487,-51.3225 236.176,-43.106 225.823,-45.358 229.487,-51.3225"/>
</g>
<!-- a42&#45;&gt;a13 -->
<g id="edge19" class="edge"><title>a42&#45;&gt;a13</title>
<path fill="none" stroke="black" d="M189.444,-49.5604C201.426,-71.6429 223.484,-112.291 237.684,-138.46"/>
<polygon fill="black" stroke="black" points="234.681,-140.264 242.526,-147.384 240.833,-136.926 234.681,-140.264"/>
</g>
<!-- a42&#45;&gt;a23 -->
<g id="edge23" class="edge"><title>a42&#45;&gt;a23</title>
<path fill="none" stroke="black" d="M192.247,-47.8174C203.334,-61.4385 220.441,-82.4566 233.342,-98.3065"/>
<polygon fill="black" stroke="black" points="230.985,-100.954 240.012,-106.5 236.414,-96.5353 230.985,-100.954"/>
</g>
<!-- a42&#45;&gt;a33 -->
<g id="edge27" class="edge"><title>a42&#45;&gt;a33</title>
<path fill="none" stroke="black" d="M195.845,-43.1192C205.033,-48.7632 217.032,-56.1338 227.491,-62.5586"/>
<polygon fill="black" stroke="black" points="225.823,-65.642 236.176,-67.894 229.487,-59.6775 225.823,-65.642"/>
</g>
<!-- a42&#45;&gt;a43 -->
<g id="edge31" class="edge"><title>a42&#45;&gt;a43</title>
<path fill="none" stroke="black" d="M198.303,-34C206.017,-34 215.288,-34 223.888,-34"/>
<polygon fill="black" stroke="black" points="223.896,-37.5001 233.896,-34 223.896,-30.5001 223.896,-37.5001"/>
</g>
<!-- O1 -->
<g id="node15" class="node"><title>O1</title>
<ellipse fill="none" stroke="black" cx="324" cy="-77" rx="18" ry="18"/>
</g>
<!-- a13&#45;&gt;O1 -->
<g id="edge32" class="edge"><title>a13&#45;&gt;O1</title>
<path fill="none" stroke="black" d="M264.247,-149.183C275.334,-135.562 292.441,-114.543 305.342,-98.6935"/>
<polygon fill="black" stroke="black" points="308.414,-100.465 312.012,-90.4996 302.985,-96.0457 308.414,-100.465"/>
</g>
<!-- O2 -->
<g id="node16" class="node"><title>O2</title>
<ellipse fill="none" stroke="black" cx="324" cy="-120" rx="18" ry="18"/>
</g>
<!-- a13&#45;&gt;O2 -->
<g id="edge36" class="edge"><title>a13&#45;&gt;O2</title>
<path fill="none" stroke="black" d="M267.845,-153.881C277.033,-148.237 289.032,-140.866 299.491,-134.441"/>
<polygon fill="black" stroke="black" points="301.487,-137.323 308.176,-129.106 297.823,-131.358 301.487,-137.323"/>
</g>
<!-- a23&#45;&gt;O1 -->
<g id="edge33" class="edge"><title>a23&#45;&gt;O1</title>
<path fill="none" stroke="black" d="M267.845,-110.881C277.033,-105.237 289.032,-97.8662 299.491,-91.4414"/>
<polygon fill="black" stroke="black" points="301.487,-94.3225 308.176,-86.106 297.823,-88.358 301.487,-94.3225"/>
</g>
<!-- a23&#45;&gt;O2 -->
<g id="edge37" class="edge"><title>a23&#45;&gt;O2</title>
<path fill="none" stroke="black" d="M270.303,-120C278.017,-120 287.288,-120 295.888,-120"/>
<polygon fill="black" stroke="black" points="295.896,-123.5 305.896,-120 295.896,-116.5 295.896,-123.5"/>
</g>
<!-- a33&#45;&gt;O1 -->
<g id="edge34" class="edge"><title>a33&#45;&gt;O1</title>
<path fill="none" stroke="black" d="M270.303,-77C278.017,-77 287.288,-77 295.888,-77"/>
<polygon fill="black" stroke="black" points="295.896,-80.5001 305.896,-77 295.896,-73.5001 295.896,-80.5001"/>
</g>
<!-- a33&#45;&gt;O2 -->
<g id="edge38" class="edge"><title>a33&#45;&gt;O2</title>
<path fill="none" stroke="black" d="M267.845,-86.1192C277.033,-91.7632 289.032,-99.1338 299.491,-105.559"/>
<polygon fill="black" stroke="black" points="297.823,-108.642 308.176,-110.894 301.487,-102.677 297.823,-108.642"/>
</g>
<!-- a43&#45;&gt;O1 -->
<g id="edge35" class="edge"><title>a43&#45;&gt;O1</title>
<path fill="none" stroke="black" d="M267.845,-43.1192C277.033,-48.7632 289.032,-56.1338 299.491,-62.5586"/>
<polygon fill="black" stroke="black" points="297.823,-65.642 308.176,-67.894 301.487,-59.6775 297.823,-65.642"/>
</g>
<!-- a43&#45;&gt;O2 -->
<g id="edge39" class="edge"><title>a43&#45;&gt;O2</title>
<path fill="none" stroke="black" d="M264.247,-47.8174C275.334,-61.4385 292.441,-82.4566 305.342,-98.3065"/>
<polygon fill="black" stroke="black" points="302.985,-100.954 312.012,-106.5 308.414,-96.5353 302.985,-100.954"/>
</g>
<!-- O1_EMPTY -->
<g id="node17" class="node"><title>O1_EMPTY</title>
</g>
<!-- O1&#45;&gt;O1_EMPTY -->
<g id="edge40" class="edge"><title>O1&#45;&gt;O1_EMPTY</title>
<path fill="none" stroke="black" d="M342.142,-77C349.644,-77 358.75,-77 367.642,-77"/>
<polygon fill="black" stroke="black" points="367.874,-80.5001 377.874,-77 367.874,-73.5001 367.874,-80.5001"/>
</g>
<!-- O2_EMPTY -->
<g id="node18" class="node"><title>O2_EMPTY</title>
</g>
<!-- O2&#45;&gt;O2_EMPTY -->
<g id="edge41" class="edge"><title>O2&#45;&gt;O2_EMPTY</title>
<path fill="none" stroke="black" d="M342.142,-120C349.644,-120 358.75,-120 367.642,-120"/>
<polygon fill="black" stroke="black" points="367.874,-123.5 377.874,-120 367.874,-116.5 367.874,-123.5"/>
</g>
</g>
</svg>
